PathFileType	4	(X/Y/Z)	pose_F01_0-97.trc
DataRate	CameraRate	NumFrames	NumMarkers	Units	OrigDataRate	OrigDataStartFrame	OrigNumFrames
60	60	6	21	m	60	24	97
Frame#	Time	CHip			RHip			RKnee			RAnkle			RBigToe			RSmallToe			RHeel			LHip			LKnee			LAnkle			LBigToe			LSmallToe			LHeel			Neck			Nose			RShoulder			RElbow			RWrist			LShoulder			LElbow			LWrist			
		X1	Y1	Z1	X2	Y2	Z2	X3	Y3	Z3	X4	Y4	Z4	X5	Y5	Z5	X6	Y6	Z6	X7	Y7	Z7	X8	Y8	Z8	X9	Y9	Z9	X10	Y10	Z10	X11	Y11	Z11	X12	Y12	Z12	X13	Y13	Z13	X14	Y14	Z14	X15	Y15	Z15	X16	Y16	Z16	X17	Y17	Z17	X18	Y18	Z18	X19	Y19	Z19	X20	Y20	Z20	X21	Y21	Z21	
24	0.4	-0.2982418553386655	1.8272687449829181	-0.6507673299351441	-0.3065353853174662	1.8236616104285535	-0.595714072762112	-0.3097030437571085	1.694440496380919	-0.5807805074721425	-0.2961216136863159	1.5507345954383782	-0.511509098078309	-0.28367235936083984	1.5291750024250224	-0.5409444730114613	-0.2969253639891855	1.533747484407104	-0.5182514758031308	-0.4819780887658177	1.5393766824115518	-0.9668033884165393	-0.29194211931668	1.8293055499524224	-0.7065954644614121	-0.29367941473351244	1.695862942863882	-0.6780591110845176	-0.24947342236511336	1.5384958399866855	-0.5240607035241428	-0.35152076211316163	1.514110300416362	-1.048180050711928	-0.34676915498643635	1.523902071143449	-1.0344293003277045	-0.4048451767261316	1.5387190570213976	-0.9912069379363051	-0.30296406975107243	1.9844005240655205	-0.6731895418229427	-0.266956033938603	2.0468928016324637	-0.664675229933249	-0.3191416582980921	1.9781217157854074	-0.5904467072602135	-0.32387058316581113	1.8955841974351086	-0.5426984556273254	-0.283292727976512	1.82820528143192	-0.5217277244490696	-0.2913978318724839	1.9882477723882621	-0.7486377943433885	-0.2577529904551061	1.9350615193933	-0.7921681630498506	-0.24265971399443498	1.9943323892978608	-0.7434917237330632
25	0.4166666666666667	-0.2994446776216293	1.828370869426754	-0.6492470077412332	-0.3069640935856103	1.8250122968107967	-0.5991445436433112	-0.306983234051624	1.6956714254366074	-0.5839152510950704	-0.2961216136863159	1.5507345954383782	-0.511509098078309	-0.28367235936083984	1.5291750024250224	-0.5409444730114613	-0.29718521502776396	1.5358076348762693	-0.5182445628037139	-0.4819780887658177	1.5393766824115518	-0.9668033884165393	-0.29130970148568697	1.832031188624484	-0.7071286006089034	-0.29377540953739273	1.7017224557705637	-0.6826456481619243	-0.24947342236511336	1.5384958399866855	-0.5240607035241428	-0.35152076211316163	1.514110300416362	-1.048180050711928	-0.34676915498643635	1.523902071143449	-1.0344293003277045	-0.4048451767261316	1.5387190570213976	-0.9912069379363051	-0.30379190051722005	1.9835109224640157	-0.6758502354443231	-0.2669151227360207	2.045621927404241	-0.66405325183662	-0.31689479770931	1.9768909098515828	-0.5916944849183664	-0.32030203924097794	1.8941010156004199	-0.5499174039268294	-0.2945087254365808	1.8299456347613259	-0.49149001483018184	-0.2913886690647319	1.988026944263305	-0.7488392575524332	-0.8911102393017705	1.846132969380604	-0.21090305652576202	-0.539530256672621	1.9071090992189326	-0.48574715383178574
26	0.43333333333333335	-0.3010820809156871	1.8261542764779763	-0.6517459971266787	-0.3104295462849333	1.8232849994135665	-0.5998608505589117	-0.30820205858631583	1.695100342808027	-0.5868089976704585	-0.2961216136863159	1.5507345954383782	-0.511509098078309	-0.28367235936083984	1.5291750024250224	-0.5409444730114613	-0.29744506606634247	1.5378677853454346	-0.5182376498042969	-0.4819780887658177	1.5393766824115518	-0.9668033884165393	-0.29167743262627216	1.8296713099353081	-0.706629978813874	-0.29709382938735146	1.697474213975116	-0.6916262173982425	-0.24947342236511336	1.5384958399866855	-0.5240607035241428	-0.35152076211316163	1.514110300416362	-1.048180050711928	-0.34676915498643635	1.523902071143449	-1.0344293003277045	-0.4048451767261316	1.5387190570213976	-0.9912069379363051	-0.3038567208320322	1.9832833585620238	-0.6760264040250795	-0.2668903827363454	2.0467104851723397	-0.6638671179592912	-0.3200952500996974	1.9771576357259069	-0.6013017932521116	-0.32484396866343695	1.891909377671337	-0.553999600675152	-0.3111437026277772	1.8292559035459448	-0.48794289627441495	-0.2892114263102903	1.9880725570259268	-0.7509175771300719	-0.8661630824990321	1.840255147084383	-0.2493507807948191	-0.8364007993508071	1.8198858091400043	-0.22800258393050832
27	0.45	-0.3047405503319531	1.826759716294341	-0.6645372954048451	-0.3103263337464309	1.8248399840924234	-0.6086689125469954	-0.3089613784243884	1.6949853093641054	-0.5903085533061131	-0.2961216136863159	1.5507345954383782	-0.511509098078309	-0.28367235936083984	1.5291750024250224	-0.5409444730114613	-0.297704917104921	1.5399279358145999	-0.51823073680488	-0.4819780887658177	1.5393766824115518	-0.9668033884165393	-0.2941412138578649	1.8281793850141586	-0.7162168530579871	-0.29709382938735146	1.697474213975116	-0.6916262173982425	-0.24947342236511336	1.5384958399866855	-0.5240607035241428	-0.35152076211316163	1.514110300416362	-1.048180050711928	-0.34676915498643635	1.523902071143449	-1.0344293003277045	-0.4048451767261316	1.5387190570213976	-0.9912069379363051	-0.31009515364272294	1.9829913502766963	-0.6776759903367678	-0.26900656733444434	2.0465999857222026	-0.6619826184587836	-0.3230030007131793	1.977017021690781	-0.6021106898818258	-0.3286098580615264	1.8930506135341365	-0.5582318159931985	-0.3147409333649414	1.8274587555143356	-0.4833758435266225	-0.2944886880077346	1.9870286540639501	-0.7492656917784247	-0.8659807967596371	1.838320641043025	-0.2479051495562163	-0.7086700320263668	1.7751610212209843	-0.4222782061882716
28	0.4666666666666667	-0.30765720948650777	1.8248046237385827	-0.6736767871815107	-0.3186646309946894	1.821721737634095	-0.6167603822445952	-0.3129579289467918	1.6949358099956353	-0.5963249269092955	-0.2961216136863159	1.5507345954383782	-0.511509098078309	-0.28367235936083984	1.5291750024250224	-0.5409444730114613	-0.2979647681434994	1.541988086283765	-0.5182238238054631	-0.4819780887658177	1.5393766824115518	-0.9668033884165393	-0.2982452907044552	1.8277900626032875	-0.7283265374653075	-0.29709382938735146	1.697474213975116	-0.6916262173982425	-0.24947342236511336	1.5384958399866855	-0.5240607035241428	-0.35152076211316163	1.514110300416362	-1.048180050711928	-0.34676915498643635	1.523902071143449	-1.0344293003277045	-0.4048451767261316	1.5387190570213976	-0.9912069379363051	-0.3153506355179319	1.9817976033953935	-0.6761205035673451	-0.26795113137321513	2.0481396836473214	-0.6675379372533563	-0.32827354951099813	1.9763681394539658	-0.6010102434650288	-0.3352011749197538	1.890391774559151	-0.5681505331115977	-0.3247635758342504	1.8184007083087337	-0.4942184097047856	-0.29634272804649636	1.985891002447398	-0.754839707033979	-0.8812940203354924	1.8248144327731985	-0.22304590584669765	-0.6924787061320892	1.761239258348387	-0.46986277921178604
29	0.48333333333333334	-0.31169872587502945	1.827359732524116	-0.6784026192821759	-0.32687576158980736	1.8215417328400658	-0.6169685159310971	-0.31695447946919525	1.694886310627165	-0.6023413005124779	-0.2961216136863159	1.5507345954383782	-0.511509098078309	-0.28367235936083984	1.5291750024250224	-0.5409444730114613	-0.29822461918207793	1.5440482367529302	-0.5182169108060461	-0.4819780887658177	1.5393766824115518	-0.9668033884165393	-0.29991294698466514	1.8286105688312801	-0.7348532122405517	-0.29709382938735146	1.697474213975116	-0.6916262173982425	-0.24947342236511336	1.5384958399866855	-0.5240607035241428	-0.35152076211316163	1.514110300416362	-1.048180050711928	-0.34676915498643635	1.523902071143449	-1.0344293003277045	-0.4048451767261316	1.5387190570213976	-0.9912069379363051	-0.3183446166374981	1.9811311517518309	-0.6767918760856344	-0.2688208770882193	2.0483412477551752	-0.6705081073193293	-0.3322740588367693	1.97531476996802	-0.6046271068791326	-0.34042004650762503	1.8917074476644695	-0.5758790082815928	-0.3341235637599062	1.8222576295626978	-0.5154290268885149	-0.2994166165944671	1.9849622058257386	-0.7553979760478797	-0.8855024612809769	1.8245506271582612	-0.21912776748112464	-0.7318779071492757	1.7634627841997612	-0.4224612969796799
